<svg width="2090" height="1328" viewBox="0 0 2090 1328" fill="none" xmlns="http://www.w3.org/2000/svg">
<g clip-path="url(#clip0_239_10159)">
<rect width="2090" height="1328" fill="url(#paint0_linear_239_10159)" fill-opacity="0.7"/>
<path d="M2406 1271H1280.2C1278.79 1271.01 1277.39 1270.92 1276 1270.72L1808.47 533.141C1811.72 528.545 1816.44 524.723 1822.14 522.062C1827.84 519.402 1834.32 518 1840.92 518C1847.52 518 1854 519.402 1859.7 522.062C1865.4 524.723 1870.12 528.545 1873.37 533.141L2230.71 1028.12L2247.83 1051.8L2406 1271Z" fill="#0066FF" fill-opacity="0.7"/>
<path d="M1925 1540H729.463C727.968 1540.01 726.473 1539.91 725 1539.69L1290.46 714.93C1293.91 709.792 1298.91 705.517 1304.97 702.542C1311.02 699.568 1317.91 698 1324.91 698C1331.92 698 1338.81 699.568 1344.86 702.542C1350.92 705.517 1355.92 709.792 1359.37 714.93L1738.85 1268.41L1757.04 1294.89L1925 1540Z" fill="#B3D1FF"/>
<path d="M2186 1396H1591L1706.29 1217.59L1714.59 1204.74L1864.83 972.221C1867.49 968.664 1870.82 965.743 1874.61 963.647C1878.39 961.551 1882.55 960.328 1886.81 960.057C1891.07 959.787 1895.34 960.474 1899.33 962.076C1903.32 963.677 1906.96 966.156 1909.99 969.352C1910.77 970.259 1911.49 971.217 1912.15 972.221L2186 1396Z" fill="white"/>
</g>
<defs>
<linearGradient id="paint0_linear_239_10159" x1="1045" y1="0" x2="1045" y2="1328" gradientUnits="userSpaceOnUse">
<stop stop-color="#0A6CFF"/>
<stop offset="1" stop-color="#6EA8FF"/>
</linearGradient>
<clipPath id="clip0_239_10159">
<rect width="2090" height="1328" fill="white"/>
</clipPath>
</defs>
</svg>
